<svg width="400" height="400" viewBox="0 0 400 400" fill="none" xmlns="http://www.w3.org/2000/svg">
<rect width="400" height="400" fill="#007C23"/>
<g clip-path="url(#clip0_615_264)">
<path d="M196.731 60.5244L118.113 189.885C117.496 190.9 116.064 191.013 115.299 190.106C108.378 181.887 82.5923 146.925 114.499 115.059C143.614 85.9813 180.698 65.2495 194.442 58.0842C196.002 57.2713 197.644 59.0228 196.731 60.5244Z" fill="white"/>
<path d="M192.383 342.185C193.952 343.284 195.886 341.41 194.834 339.811C177.274 313.102 118.9 224.234 110.836 210.894C102.883 197.735 87.2397 175.868 85.9347 157.159C85.8044 155.291 83.2218 154.912 82.5721 156.668C81.5243 159.501 80.4088 162.882 79.3692 166.744C66.2446 215.499 85.3055 267.235 126.702 296.211L192.383 342.186V342.185Z" fill="white"/>
<path d="M203.182 339.884L281.801 210.524C282.417 209.509 283.85 209.396 284.615 210.304C291.536 218.521 317.322 253.484 285.414 285.351C256.299 314.427 219.215 335.16 205.471 342.325C203.912 343.138 202.27 341.386 203.182 339.884Z" fill="white"/>
<path d="M207.616 58.2068C206.046 57.1086 204.113 58.9815 205.165 60.5809C222.726 87.2901 281.099 176.158 289.163 189.498C297.117 202.656 312.759 224.524 314.065 243.233C314.195 245.101 316.778 245.479 317.427 243.723C318.474 240.89 319.591 237.51 320.63 233.648C333.754 184.893 314.693 133.157 273.297 104.181L207.616 58.2068Z" fill="white"/>
</g>
<defs>
<clipPath id="clip0_615_264">
<rect width="250" height="285.891" fill="white" transform="translate(75 57.0547)"/>
</clipPath>
</defs>
</svg>
