<svg width="202" height="231" viewBox="0 0 202 231" fill="none" xmlns="http://www.w3.org/2000/svg">
<g clip-path="url(#clip0_784_260)">
<path d="M98.3592 2.79449L34.8353 106.98C34.3371 107.797 33.1797 107.888 32.5617 107.157C26.9693 100.537 6.13479 72.38 31.9154 46.7157C55.4403 23.2971 85.4045 6.60004 96.5096 0.829212C97.7695 0.174482 99.0966 1.58512 98.3592 2.79449Z" fill="#F6F6F6"/>
<path d="M94.8464 229.639C96.1142 230.524 97.6763 229.015 96.8266 227.727C82.6379 206.216 35.4718 134.643 28.9564 123.899C22.53 113.302 9.89025 95.69 8.83583 80.6222C8.73059 79.118 6.64381 78.8125 6.11887 80.2271C5.27227 82.5085 4.37094 85.2315 3.53091 88.3421C-7.07378 127.608 8.32747 169.276 41.7758 192.612L94.8464 229.64V229.639Z" fill="#F6F6F6"/>
<path d="M103.571 227.786L167.095 123.601C167.593 122.784 168.751 122.693 169.369 123.424C174.961 130.042 195.796 158.201 170.015 183.865C146.49 207.283 116.526 223.981 105.421 229.751C104.161 230.406 102.834 228.996 103.571 227.786Z" fill="#F6F6F6"/>
<path d="M107.154 0.927948C105.886 0.0434556 104.324 1.55186 105.174 2.83999C119.363 24.3512 166.529 95.9239 173.044 106.668C179.471 117.265 192.11 134.877 193.165 149.945C193.27 151.449 195.357 151.754 195.882 150.34C196.728 148.058 197.63 145.336 198.47 142.225C209.074 102.959 193.673 61.2915 160.225 37.9549L107.154 0.927948Z" fill="#F6F6F6"/>
</g>
<defs>
<clipPath id="clip0_784_260">
<rect width="202" height="230.252" fill="white"/>
</clipPath>
</defs>
</svg>
